Coordinates
version=1
nRows=7
nColumns=42
inDegrees=yes

Units are S.I. units (second, meters, Newtons, ...)
If the header above contains a line with 'inDegrees', this indicates whether rotational values are in degrees (yes) or radians (no).

endheader
time	pelvis_tilt	pelvis_list	pelvis_rotation	pelvis_tx	pelvis_ty	pelvis_tz	hip_flexion_r	hip_adduction_r	hip_rotation_r	knee_angle_r	knee_adduction_r	knee_angle_r_beta	ankle_angle_r	subtalar_angle_r	mtp_angle_r	hip_flexion_l	hip_adduction_l	hip_rotation_l	knee_angle_l	knee_adduction_l	knee_angle_l_beta	ankle_angle_l	subtalar_angle_l	mtp_angle_l	lumbar_extension	lumbar_bending	lumbar_rotation	arm_flex_r	arm_add_r	arm_rot_r	elbow_flex_r	pro_sup_r	wrist_flex_r	wrist_dev_r	arm_flex_l	arm_add_l	arm_rot_l	elbow_flex_l	pro_sup_l	wrist_flex_l	wrist_dev_l
      1.71000000	     26.45908554	     -2.23989043	     -6.72654050	      0.12119040	      0.95464274	      0.04673828	    -14.51910538	      3.50314740	    -26.43969377	     25.85628151	    -14.43050831	      0.45127724	     16.75018748	     32.23404466	     -7.55631988	    -11.57060895	     -1.36709842	      0.79889310	     53.33296307	      6.90163503	      0.93083581	     11.12162268	    -19.24604686	     -7.55631988	    -37.62928101	     -2.46488519	      4.47059413	     16.94418053	    -11.37972341	     -5.13172008	     41.12794671	     90.00000001	      0.00000000	      0.00000000	     -0.49604869	    -18.22779898	     12.37967605	     62.86287435	     90.00000001	      0.00000000	      0.00000000
      1.72000000	     26.25432619	     -2.22831036	     -6.79624421	      0.12378870	      0.95489731	      0.04707576	    -14.59038622	      3.49168816	    -26.39176839	     25.62980596	    -14.35387894	      0.44732450	     16.79971361	     32.04346382	     -7.55566153	    -10.33022390	     -1.29345465	      0.88168259	     52.27894075	      6.45165642	      0.91243965	     11.14550144	    -19.21616573	     -7.55566153	    -37.66435117	     -2.42043467	      4.57175931	     17.33596700	    -11.41667645	     -5.03806255	     41.28712847	     90.00000001	      0.00000000	      0.00000000	     -0.31367524	    -18.02545478	     12.49446083	     62.88967612	     90.00000001	      0.00000000	      0.00000000
      1.73000000	     26.08343297	     -2.30097288	     -6.85220595	      0.12628719	      0.95508601	      0.04741101	    -14.69247791	      3.49969537	    -26.39317529	     25.49081379	    -14.14362578	      0.44489863	     16.83480998	     31.82253972	     -7.55518266	     -9.10388440	     -1.35152714	      0.92675643	     51.26541649	      6.05292717	      0.89475031	     11.17101261	    -19.20949625	     -7.55518266	    -37.74685131	     -2.27621466	      4.69329228	     17.78771229	    -11.44830961	     -4.97204087	     41.46947939	     90.00000001	      0.00000000	      0.00000000	     -0.09935664	    -17.87761292	     12.55629524	     62.95375325	     90.00000001	      0.00000000	      0.00000000
      1.74000000	     25.89817304	     -2.34765196	     -6.92098070	      0.12896099	      0.95528991	      0.04768628	    -14.80820415	      3.51780754	    -26.38719212	     25.26491069	    -14.01667125	      0.44095588	     16.90244440	     31.66358903	     -7.55472590	     -7.95514071	     -1.30153716	      1.04567324	     49.98853589	      5.56828644	      0.87246454	     11.16738920	    -19.19070979	     -7.55472590	    -37.76698143	     -2.15943304	      4.80619733	     18.19422484	    -11.46288746	     -4.89012224	     41.60045026	     90.00000001	      0.00000000	      0.00000000	      0.07310827	    -17.66633153	     12.66155642	     62.99538367	     90.00000001	      0.00000000	      0.00000000
      1.75000000	     26.03913963	     -2.12730648	     -7.10222216	      0.13202609	      0.95605104	      0.04803209	    -15.36397381	      3.19932438	    -26.36904333	     24.78065469	    -13.97278751	      0.43250402	     17.08684489	     32.17673615	     -7.55412375	     -7.45571812	     -0.77341545	      1.56464699	     47.98353965	      5.21725009	      0.83747075	     10.84545724	    -19.14156812	     -7.55412375	    -38.01190011	     -2.43114820	      4.87718809	     18.49087149	    -11.46586917	     -4.62665125	     41.33617505	     90.00000001	      0.00000000	      0.00000000	      0.22533403	    -17.51566256	     12.99570367	     62.74666417	     90.00000001	      0.00000000	      0.00000000
      1.76000000	     26.11540913	     -2.09243790	     -7.14187242	      0.13503648	      0.95655031	      0.04823045	    -15.82234139	      3.00963129	    -26.69371670	     24.45192655	    -13.77855267	      0.42676663	     17.19136100	     32.95679427	     -7.55323535	     -6.80635464	     -0.56508278	      1.98124201	     46.25772044	      4.83229497	      0.80734953	     10.55117429	    -19.12716247	     -7.55323535	    -38.23631345	     -2.41780582	      4.87418823	     18.95009679	    -11.47979070	     -4.21157103	     40.96631535	     90.00000001	      0.00000000	      0.00000000	      0.46365632	    -17.46424462	     13.45243613	     62.56472598	     90.00000001	      0.00000000	      0.00000000
      1.77000000	     26.01963446	     -2.05163109	     -7.13905359	      0.13823705	      0.95674608	      0.04846376	    -16.01449196	      2.87331371	    -27.43472711	     24.17442584	    -13.86407936	      0.42192333	     17.28005621	     34.20372368	     -7.55041627	     -5.94679070	     -0.38143197	      2.18051205	     44.62340101	      4.25105299	      0.77882527	     10.37316691	    -19.10170683	     -7.55041627	    -38.22207947	     -2.39122788	      4.83875553	     19.33763490	    -11.59094314	     -3.20726617	     40.36275926	     90.00000001	      0.00000000	      0.00000000	      0.60039119	    -17.58447319	     14.35653098	     62.62074874	     90.00000001	      0.00000000	      0.00000000
